<svg width="30" height="31" viewBox="0 0 30 31" fill="none" xmlns="http://www.w3.org/2000/svg">
<circle cx="14.999" cy="15.3326" r="14.6849" fill="#C4C4C4"/>
<g clip-path="url(#clip0_2_162)">
<path d="M29.1832 15.3374C29.1832 23.1715 22.8324 29.5223 14.9983 29.5223C7.16416 29.5223 0.813354 23.1715 0.813354 15.3374C0.813354 7.50328 7.16417 1.15247 14.9983 1.15247C22.8324 1.15247 29.1832 7.50328 29.1832 15.3374Z" fill="#3C5A9A" stroke="white"/>
<path d="M18.8884 6.99475H16.2481C14.6813 6.99475 12.9386 7.65374 12.9386 9.92493C12.9462 10.7163 12.9386 11.4742 12.9386 12.3272H11.126V15.2116H12.9947V23.5153H16.4285V15.1568H18.6949L18.9 12.3191H16.3693C16.3693 12.3191 16.375 11.0567 16.3693 10.6902C16.3693 9.79263 17.3032 9.84403 17.3594 9.84403C17.8038 9.84403 18.6679 9.84533 18.8897 9.84403V6.99475H18.8884Z" fill="white"/>
</g>
<defs>
<clipPath id="clip0_2_162">
<rect width="29.3699" height="29.3699" fill="white" transform="translate(0.314026 0.647705)"/>
</clipPath>
</defs>
</svg>
