<svg width="71" height="54" viewBox="0 0 71 54" fill="none" xmlns="http://www.w3.org/2000/svg">
<path d="M42.2226 1.00371C39.9507 1.00371 37.6765 1.86439 35.9443 3.58995C32.48 7.04061 32.4799 12.655 35.9443 16.1059C35.9547 16.1151 35.9652 16.1242 35.9759 16.133L48.704 27.9855C48.9171 28.1847 49.1977 28.296 49.4894 28.2969H49.5029H49.512C49.8037 28.296 50.0842 28.1847 50.2973 27.9855L63.0299 16.133C66.6435 12.7688 66.5217 7.04085 63.057 3.58995C62.9487 3.48137 62.8198 3.39545 62.6779 3.33719H62.6734C59.1903 0.216298 53.8563 0.250905 50.5049 3.58995L49.4984 4.59195L48.4964 3.58995C46.7643 1.86439 44.4945 1.00371 42.2226 1.00371ZM42.2226 3.29206V3.29657C43.8988 3.29657 45.5743 3.94048 46.867 5.22836L48.686 7.03827C48.9025 7.25351 49.1954 7.37432 49.5007 7.37432C49.806 7.37432 50.0989 7.25351 50.3154 7.03827L52.1343 5.22836C54.7199 2.65214 58.8375 2.65261 61.4231 5.22836C61.4261 5.22837 61.4291 5.22837 61.4321 5.22836C64.0128 7.80364 64.0908 11.9862 61.4547 14.4404L49.5029 25.5662L37.5782 14.4675C34.9928 11.892 34.9928 7.7989 37.5782 5.22384C38.871 3.93597 40.5465 3.29206 42.2226 3.29206ZM2.15619 22.3842C1.84975 22.3842 1.55588 22.506 1.33919 22.7227C1.12251 22.9394 1.00076 23.2332 1.00073 23.5397V47.0731C1.00076 47.3796 1.12251 47.6734 1.33919 47.8901C1.55588 48.1068 1.84975 48.2286 2.15619 48.2286H8.47511H14.7985C15.105 48.2286 15.3989 48.1068 15.6155 47.8901C15.8322 47.6734 15.954 47.3796 15.954 47.0731V45.3715L37.5376 52.6834C37.5674 52.6922 37.5975 52.6997 37.6279 52.706C40.1411 53.3436 43.0401 52.9653 45.2331 51.4919L67.5841 39.346C67.5901 39.346 67.5961 39.346 67.6021 39.346L68.1482 39.0346C70.0135 37.9794 70.8133 35.6825 69.9807 33.7131C69.272 32.037 67.8789 31.2678 66.7897 31.1088V31.0998C65.7005 30.9404 64.8082 31.2488 64.8082 31.2488C64.7698 31.2633 64.7321 31.2799 64.6954 31.2984L52.3735 37.0125C52.3895 36.8567 52.4232 36.7076 52.4232 36.5476C52.4232 33.9515 50.2726 31.84 47.6659 31.84H37.4067C37.3625 31.7615 37.3118 31.6506 37.2713 31.5782C37.0879 31.2469 36.8893 30.9275 36.6755 30.6169C36.2477 29.9955 35.7604 29.4158 35.2222 28.8882C33.0691 26.7788 30.0848 25.4805 26.8045 25.4805H15.954V23.5397C15.954 23.2332 15.8322 22.9394 15.6155 22.7227C15.3989 22.506 15.105 22.3842 14.7985 22.3842H8.47511H2.15619ZM3.31165 24.6951H8.47511H13.6431V45.9177H8.47511H3.31165V24.6951ZM15.954 27.7914H26.8045C29.4773 27.7914 31.8704 28.8437 33.6018 30.5401C34.0348 30.9644 34.4278 31.4278 34.7708 31.9258C34.9425 32.1751 35.1025 32.4323 35.2493 32.6976C35.4303 33.0251 35.5533 33.2244 35.651 33.4514L35.9489 34.1509H36.9644H47.6659C49.05 34.1509 50.1123 35.2096 50.1123 36.5476C50.1123 37.5511 49.5145 38.3911 48.6318 38.7502L48.6183 38.7547C48.3274 38.8712 48.007 38.9398 47.6659 38.9398H31.5933V41.2507H47.6659C48.1489 41.2507 48.6062 41.1549 49.0471 41.0205C49.1843 41.0113 49.3188 40.9777 49.4443 40.9212L65.571 33.4423C65.5907 33.4423 65.972 33.3165 66.4557 33.3882C66.9516 33.4598 67.428 33.5962 67.8549 34.6068C68.2364 35.5092 67.8926 36.5183 67.0108 37.017L66.4692 37.3194L44.0371 49.5149C44.0045 49.533 43.9729 49.5525 43.9423 49.5736C42.4184 50.5976 40.0519 50.9355 38.2011 50.4673H38.1966L15.954 42.9342V27.7914Z" fill="white" stroke="white" stroke-width="0.5"/>
</svg>
