<svg width="18" height="18" viewBox="0 0 18 18" fill="none" xmlns="http://www.w3.org/2000/svg">
<path d="M13.4384 10.7405C13.2441 10.9287 13.1549 11.201 13.1991 11.468L13.8659 15.158C13.9221 15.4707 13.7901 15.7872 13.5284 15.968C13.2719 16.1555 12.9306 16.178 12.6509 16.028L9.32911 14.2955C9.21361 14.234 9.08536 14.201 8.95411 14.1972H8.75086C8.68036 14.2077 8.61136 14.2302 8.54836 14.2647L5.22586 16.0055C5.06161 16.088 4.87561 16.1172 4.69336 16.088C4.24936 16.004 3.95311 15.581 4.02586 15.1347L4.69336 11.4447C4.73761 11.1755 4.64836 10.9017 4.45411 10.7105L1.74586 8.08549C1.51936 7.86574 1.44061 7.53574 1.54411 7.23799C1.64461 6.94099 1.90111 6.72424 2.21086 6.67549L5.93836 6.13474C6.22186 6.10549 6.47086 5.93299 6.59836 5.67799L8.24086 2.31049C8.27986 2.23549 8.33011 2.16649 8.39086 2.10799L8.45836 2.05549C8.49361 2.01649 8.53411 1.98424 8.57911 1.95799L8.66086 1.92799L8.78836 1.87549H9.10411C9.38611 1.90474 9.63436 2.07349 9.76411 2.32549L11.4284 5.67799C11.5484 5.92324 11.7816 6.09349 12.0509 6.13474L15.7784 6.67549C16.0934 6.72049 16.3566 6.93799 16.4609 7.23799C16.5591 7.53874 16.4744 7.86874 16.2434 8.08549L13.4384 10.7405Z" fill="#FFC200"/>
</svg>
