<svg width="54" height="54" viewBox="0 0 54 54" fill="none" xmlns="http://www.w3.org/2000/svg">
<g clip-path="url(#clip0_2_108)">
<path d="M44.0214 25.0882C43.5193 25.0882 43.0379 24.8888 42.6829 24.5338C42.3279 24.1789 42.1285 23.6974 42.1285 23.1954V17.85C42.1285 10.2785 35.1325 4.22139 26.5314 4.22139C17.9302 4.22139 10.9342 10.3542 10.9342 17.85V23.1954C10.9342 23.6974 10.7348 24.1789 10.3798 24.5338C10.0248 24.8888 9.54337 25.0882 9.04136 25.0882C8.53934 25.0882 8.05788 24.8888 7.7029 24.5338C7.34792 24.1789 7.1485 23.6974 7.1485 23.1954V17.85C7.1485 8.21911 15.8556 0.375107 26.5314 0.375107C37.2071 0.375107 45.9142 8.21911 45.9142 17.85V23.1954C45.9162 23.4445 45.8686 23.6916 45.7742 23.9221C45.6798 24.1527 45.5405 24.3622 45.3643 24.5383C45.1881 24.7145 44.9787 24.8539 44.7481 24.9483C44.5175 25.0427 44.2705 25.0903 44.0214 25.0882Z" fill="white" stroke="white" stroke-width="0.5"/>
<path d="M38.9035 42.9035C38.4015 42.9035 37.9201 42.7041 37.5651 42.3491C37.2101 41.9941 37.0107 41.5126 37.0107 41.0106V23.0361C37.0264 22.5446 37.2328 22.0786 37.586 21.7366C37.9393 21.3946 38.4118 21.2035 38.9035 21.2038C45.4301 21.2038 50.7452 26.0949 50.7452 32.0915C50.7452 38.0881 45.4301 42.9035 38.9035 42.9035ZM40.7964 25.1258V38.9209C42.4536 38.6465 43.9671 37.8135 45.0855 36.5601C46.2038 35.3068 46.8598 33.7086 46.9444 32.0309C46.8632 30.3506 46.2087 28.7488 45.0901 27.4924C43.9714 26.236 42.456 25.4007 40.7964 25.1258ZM14.0995 42.9035C7.57296 42.9035 2.25782 38.0275 2.25782 32.0309C2.25782 26.0343 7.57296 21.2038 14.0995 21.2038C14.6016 21.2038 15.083 21.4032 15.438 21.7582C15.793 22.1132 15.9924 22.5946 15.9924 23.0966V41.0106C15.9924 41.5126 15.793 41.9941 15.438 42.3491C15.083 42.7041 14.6016 42.9035 14.0995 42.9035ZM12.2067 25.1258C10.547 25.4007 9.03167 26.236 7.91301 27.4924C6.79434 28.7488 6.1399 30.3506 6.05868 32.0309C6.14326 33.7086 6.79922 35.3068 7.9176 36.5601C9.03597 37.8135 10.5495 38.6465 12.2067 38.9209V25.1258Z" fill="white" stroke="white" stroke-width="0.5"/>
<path d="M38.283 49.0658H32.0139C31.5119 49.0658 31.0304 48.8664 30.6754 48.5114C30.3205 48.1565 30.121 47.675 30.121 47.173C30.121 46.671 30.3205 46.1895 30.6754 45.8345C31.0304 45.4796 31.5119 45.2801 32.0139 45.2801H38.283C39.263 45.2801 40.2028 44.8908 40.8957 44.1979C41.5886 43.505 41.9779 42.5652 41.9779 41.5853V40.7524C41.9779 40.2504 42.1773 39.7689 42.5323 39.414C42.8873 39.059 43.3687 38.8596 43.8707 38.8596C44.3728 38.8596 44.8542 39.059 45.2092 39.414C45.5642 39.7689 45.7636 40.2504 45.7636 40.7524V41.5853C45.7636 43.5692 44.9755 45.472 43.5726 46.8748C42.1697 48.2777 40.267 49.0658 38.283 49.0658Z" fill="white" stroke="white" stroke-width="0.5"/>
<path d="M28.7727 52.6254H25.0324C23.6589 52.6254 22.3416 52.0798 21.3704 51.1086C20.3992 50.1374 19.8535 48.8201 19.8535 47.4466V47.2346C19.8575 45.8637 20.4049 44.5503 21.3757 43.5824C22.3465 42.6144 23.6615 42.0709 25.0324 42.0709H28.7727C30.1422 42.0709 31.4556 42.6149 32.424 43.5833C33.3924 44.5517 33.9364 45.8651 33.9364 47.2346V47.4466C33.9364 48.8175 33.3928 50.1325 32.4249 51.1032C31.4569 52.074 30.1436 52.6214 28.7727 52.6254ZM25.0627 45.8566C24.6958 45.8566 24.3437 46.0013 24.0829 46.2593C23.8221 46.5173 23.6735 46.8677 23.6695 47.2346V47.4466C23.6695 47.8161 23.8163 48.1704 24.0776 48.4317C24.3388 48.6929 24.6932 48.8397 25.0627 48.8397H28.7727C29.1395 48.8357 29.49 48.6872 29.748 48.4264C30.006 48.1655 30.1507 47.8135 30.1507 47.4466V47.2346C30.1507 46.8691 30.0055 46.5186 29.7471 46.2602C29.4886 46.0018 29.1381 45.8566 28.7727 45.8566H25.0627Z" fill="white" stroke="white" stroke-width="0.5"/>
</g>
<defs>
<clipPath id="clip0_2_108">
<rect width="53" height="53" fill="white" transform="translate(0.00146484 0.00370789)"/>
</clipPath>
</defs>
</svg>
