<svg width="24" height="25" viewBox="0 0 24 25" fill="none" xmlns="http://www.w3.org/2000/svg">
<path d="M11.9967 6.62275C8.7981 6.62275 6.21665 9.38746 6.21665 12.8132C6.21665 16.2389 8.7981 19.0036 11.9967 19.0036C15.1954 19.0036 17.7768 16.2389 17.7768 12.8132C17.7768 9.38746 15.1954 6.62275 11.9967 6.62275ZM11.9967 16.8365C9.92819 16.8365 8.2401 15.0286 8.2401 12.8132C8.2401 10.5978 9.92819 8.78985 11.9967 8.78985C14.0653 8.78985 15.7534 10.5978 15.7534 12.8132C15.7534 15.0286 14.0653 16.8365 11.9967 16.8365ZM18.0135 4.9265C17.2667 4.9265 16.6636 5.5724 16.6636 6.37224C16.6636 7.17207 17.2667 7.81797 18.0135 7.81797C18.7604 7.81797 19.3635 7.17509 19.3635 6.37224C19.3637 6.18231 19.3289 5.99421 19.2611 5.81869C19.1934 5.64318 19.094 5.48371 18.9686 5.34941C18.8432 5.21512 18.6943 5.10863 18.5304 5.03606C18.3665 4.96349 18.1909 4.92626 18.0135 4.9265ZM23.2638 12.8132C23.2638 11.1471 23.2779 9.49612 23.1905 7.83307C23.1032 5.90139 22.6917 4.18703 21.3728 2.77449C20.0511 1.35893 18.4532 0.92129 16.6495 0.827724C15.0939 0.734159 13.5524 0.74925 11.9995 0.74925C10.4439 0.74925 8.90237 0.734159 7.34956 0.827724C5.54592 0.92129 3.9452 1.36195 2.62629 2.77449C1.30457 4.19005 0.895929 5.90139 0.808566 7.83307C0.721202 9.49914 0.735293 11.1501 0.735293 12.8132C0.735293 14.4762 0.721202 16.1302 0.808566 17.7933C0.895929 19.7249 1.30738 21.4393 2.62629 22.8518C3.94802 24.2674 5.54592 24.705 7.34956 24.7986C8.90519 24.8922 10.4467 24.8771 11.9995 24.8771C13.5552 24.8771 15.0967 24.8922 16.6495 24.7986C18.4532 24.705 20.0539 24.2644 21.3728 22.8518C22.6945 21.4363 23.1032 19.7249 23.1905 17.7933C23.2807 16.1302 23.2638 14.4792 23.2638 12.8132ZM20.7838 19.9302C20.5781 20.4795 20.3301 20.89 19.9327 21.3125C19.5354 21.7381 19.1549 22.0037 18.642 22.224C17.1596 22.8549 13.6397 22.713 11.9967 22.713C10.3537 22.713 6.83101 22.8549 5.34865 22.2271C4.83574 22.0067 4.45247 21.7411 4.05793 21.3156C3.66056 20.89 3.41256 20.4825 3.20684 19.9332C2.62065 18.3426 2.75311 14.5728 2.75311 12.8132C2.75311 11.0535 2.62065 7.28073 3.20684 5.69313C3.41256 5.14381 3.66056 4.73333 4.05793 4.31078C4.45529 3.88822 4.83574 3.6196 5.34865 3.39927C6.83101 2.77147 10.3537 2.91333 11.9967 2.91333C13.6397 2.91333 17.1625 2.77147 18.6448 3.39927C19.1577 3.6196 19.541 3.8852 19.9355 4.31078C20.3329 4.73635 20.5809 5.14381 20.7866 5.69313C21.3728 7.28073 21.2404 11.0535 21.2404 12.8132C21.2404 14.5728 21.3728 18.3426 20.7838 19.9302Z" fill="white"/>
</svg>
