<svg width="69" height="70" viewBox="0 0 69 70" fill="none" xmlns="http://www.w3.org/2000/svg">
<g clip-path="url(#clip0_2_97)">
<path d="M49.761 49.9022H26.2221C25.5685 49.9022 24.9417 49.6426 24.4796 49.1804C24.0175 48.7183 23.7578 48.0915 23.7578 47.4379C23.7578 46.7844 24.0175 46.1576 24.4796 45.6954C24.9417 45.2333 25.5685 44.9736 26.2221 44.9736H49.761C50.4145 44.9736 51.0413 45.2333 51.5035 45.6954C51.9656 46.1576 52.2253 46.7844 52.2253 47.4379C52.2253 48.0915 51.9656 48.7183 51.5035 49.1804C51.0413 49.6426 50.4145 49.9022 49.761 49.9022ZM63.3244 49.9022H62.733C62.0794 49.9022 61.4526 49.6426 60.9905 49.1804C60.5283 48.7183 60.2687 48.0915 60.2687 47.4379C60.2687 46.7844 60.5283 46.1576 60.9905 45.6954C61.4526 45.2333 62.0794 44.9736 62.733 44.9736H63.3244C63.4866 44.9762 63.6476 44.9466 63.7982 44.8863C63.9488 44.8261 64.0859 44.7364 64.2015 44.6227C64.317 44.5089 64.4088 44.3733 64.4715 44.2237C64.5342 44.0741 64.5664 43.9135 64.5664 43.7514V35.2939C64.5656 35.0166 64.4719 34.7475 64.3004 34.5296C64.129 34.3116 63.8895 34.1574 63.6201 34.0913H49.0907C47.4576 34.0914 45.891 33.444 44.7344 32.291C43.5777 31.1381 42.9253 29.5736 42.9201 27.9405V14.7319C42.9228 14.5707 42.893 14.4105 42.8325 14.261C42.772 14.1115 42.6821 13.9757 42.5681 13.8617C42.454 13.7477 42.3182 13.6577 42.1687 13.5972C42.0192 13.5368 41.8591 13.507 41.6978 13.5096H12.6587C12.0051 13.5096 11.3783 13.25 10.9162 12.7879C10.454 12.3257 10.1944 11.6989 10.1944 11.0453C10.1944 10.3918 10.454 9.76497 10.9162 9.30283C11.3783 8.84068 12.0051 8.58105 12.6587 8.58105H41.6978C42.5056 8.58105 43.3054 8.74015 44.0517 9.04926C44.7979 9.35837 45.476 9.81144 46.0471 10.3826C46.6183 10.9538 47.0714 11.6318 47.3805 12.3781C47.6896 13.1243 47.8487 13.9242 47.8487 14.7319V27.9011C47.8487 28.0632 47.8809 28.2238 47.9436 28.3734C48.0062 28.523 48.098 28.6586 48.2136 28.7724C48.3292 28.8862 48.4663 28.9758 48.6169 29.036C48.7675 29.0963 48.9285 29.126 49.0907 29.1233H63.3244C63.7745 29.1292 64.2231 29.1754 64.665 29.2613L65.0987 29.3993C66.3752 29.7725 67.4951 30.552 68.2885 31.6193C69.0819 32.6867 69.5055 33.9837 69.495 35.3136V43.7711C69.4846 45.4008 68.8298 46.9602 67.6738 48.1088C66.5177 49.2575 64.9541 49.9022 63.3244 49.9022Z" fill="white"/>
<path d="M64.171 34.1699C63.6643 34.1698 63.1703 34.0123 62.757 33.7191C62.3438 33.426 62.0319 33.0117 61.8644 32.5336L57.9215 21.5724C57.8154 21.4245 57.6766 21.3031 57.5159 21.2176C57.3552 21.1321 57.1769 21.0849 56.995 21.0796H45.3438C44.6903 21.0796 44.0634 20.82 43.6013 20.3578C43.1392 19.8957 42.8795 19.2689 42.8795 18.6153C42.8795 17.9617 43.1392 17.3349 43.6013 16.8728C44.0634 16.4106 44.6903 16.151 45.3438 16.151H56.995C58.0874 16.1553 59.1585 16.4542 60.0954 17.0163C61.0322 17.5784 61.8 18.3828 62.3178 19.3447C62.3785 19.4592 62.4312 19.5778 62.4755 19.6996L66.4184 30.8776C66.6339 31.4947 66.5975 32.172 66.3171 32.7624C66.0366 33.3529 65.5347 33.809 64.9201 34.0319C64.6772 34.1091 64.4255 34.1555 64.171 34.1699ZM56.2458 60.4293C54.4717 60.4293 52.7375 59.9032 51.2624 58.9176C49.7872 57.9319 48.6375 56.531 47.9586 54.892C47.2797 53.2529 47.1021 51.4493 47.4482 49.7093C47.7943 47.9693 48.6486 46.371 49.9031 45.1165C51.1575 43.8621 52.7559 43.0078 54.4959 42.6617C56.2359 42.3155 58.0394 42.4932 59.6785 43.1721C61.3175 43.851 62.7185 45.0007 63.7041 46.4758C64.6897 47.9509 65.2158 49.6852 65.2158 51.4593C65.2158 53.8383 64.2708 56.1198 62.5886 57.802C60.9064 59.4842 58.6248 60.4293 56.2458 60.4293ZM56.2458 47.4179C55.4426 47.3983 54.6518 47.6185 53.9743 48.0505C53.2969 48.4825 52.7635 49.1067 52.4425 49.8432C52.1214 50.5797 52.0272 51.3952 52.1718 52.1856C52.3165 52.9759 52.6934 53.7052 53.2545 54.2803C53.8155 54.8554 54.5353 55.2502 55.3218 55.4143C56.1084 55.5784 56.926 55.5044 57.6702 55.2016C58.4144 54.8988 59.0515 54.3811 59.5001 53.7145C59.9487 53.0479 60.1884 52.2628 60.1887 51.4593C60.189 50.4043 59.7768 49.391 59.04 48.6359C58.3033 47.8807 57.3005 47.4436 56.2458 47.4179ZM19.7152 60.4293C17.9411 60.4293 16.2069 59.9032 14.7318 58.9176C13.2567 57.9319 12.107 56.531 11.428 54.892C10.7491 53.2529 10.5715 51.4493 10.9176 49.7093C11.2637 47.9693 12.118 46.371 13.3725 45.1165C14.627 43.8621 16.2253 43.0078 17.9653 42.6617C19.7053 42.3155 21.5089 42.4932 23.1479 43.1721C24.787 43.851 26.1879 45.0007 27.1735 46.4758C28.1592 47.9509 28.6852 49.6852 28.6852 51.4593C28.6852 53.8383 27.7402 56.1198 26.058 57.802C24.3758 59.4842 22.0942 60.4293 19.7152 60.4293ZM19.7152 47.4179C18.9159 47.4179 18.1346 47.6549 17.4699 48.099C16.8053 48.543 16.2873 49.1742 15.9815 49.9127C15.6756 50.6512 15.5955 51.4638 15.7515 52.2477C15.9074 53.0317 16.2923 53.7518 16.8575 54.317C17.4227 54.8822 18.1428 55.2671 18.9268 55.4231C19.7108 55.579 20.5234 55.499 21.2618 55.1931C22.0003 54.8872 22.6315 54.3692 23.0756 53.7046C23.5196 53.04 23.7567 52.2586 23.7567 51.4593C23.7567 50.3874 23.3309 49.3595 22.573 48.6016C21.8151 47.8437 20.7871 47.4179 19.7152 47.4179Z" fill="white"/>
<path d="M45.3439 49.9034C45.0195 49.906 44.6979 49.8441 44.3977 49.7212C44.0976 49.5983 43.8249 49.4169 43.5955 49.1875C43.3662 48.9581 43.1847 48.6854 43.0618 48.3853C42.9389 48.0851 42.877 47.7635 42.8796 47.4391V25.8914C42.8796 25.2378 43.1392 24.611 43.6014 24.1489C44.0635 23.6868 44.6903 23.4271 45.3439 23.4271C45.9974 23.4271 46.6242 23.6868 47.0864 24.1489C47.5485 24.611 47.8082 25.2378 47.8082 25.8914V47.4391C47.8108 47.7635 47.7488 48.0851 47.6259 48.3853C47.503 48.6854 47.3216 48.9581 47.0922 49.1875C46.8629 49.4169 46.5902 49.5983 46.29 49.7212C45.9898 49.8441 45.6682 49.906 45.3439 49.9034ZM20.0899 25.9703H3.94387C3.2903 25.9703 2.6635 25.7106 2.20136 25.2485C1.73921 24.7864 1.47958 24.1596 1.47958 23.506C1.47958 22.8524 1.73921 22.2256 2.20136 21.7635C2.6635 21.3013 3.2903 21.0417 3.94387 21.0417H20.0899C20.7434 21.0417 21.3702 21.3013 21.8324 21.7635C22.2945 22.2256 22.5542 22.8524 22.5542 23.506C22.5542 24.1596 22.2945 24.7864 21.8324 25.2485C21.3702 25.7106 20.7434 25.9703 20.0899 25.9703ZM23.1259 36.9708H14.6882C14.0346 36.9708 13.4078 36.7112 12.9456 36.2491C12.4835 35.7869 12.2239 35.1601 12.2239 34.5066C12.2239 33.853 12.4835 33.2262 12.9456 32.764C13.4078 32.3019 14.0346 32.0423 14.6882 32.0423H23.1259C23.7794 32.0423 24.4062 32.3019 24.8684 32.764C25.3305 33.2262 25.5902 33.853 25.5902 34.5066C25.5902 35.1601 25.3305 35.7869 24.8684 36.2491C24.4062 36.7112 23.7794 36.9708 23.1259 36.9708Z" fill="white"/>
</g>
<defs>
<clipPath id="clip0_2_97">
<rect width="69" height="69" fill="white" transform="translate(-6.10352e-05 0.00427246)"/>
</clipPath>
</defs>
</svg>
